<svg xmlns="http://www.w3.org/2000/svg" viewBox="0 0 1060 560" role="img"
     aria-label="Multi-tenant healthcare RAG platform on Azure. Ingestion: documents land in tenant-isolated Blob Storage, which auto-triggers a pipeline — Azure AI Document Intelligence parses them, a LangChain semantic chunker splits them, and embeddings are written to a per-tenant Azure AI Search index. Query: a request is authenticated by Azure AD B2C, the RAG service runs a hybrid search over Azure AI Search with a tenant filter, and Azure OpenAI generates a grounded answer with citations. Tenant isolation holds at every layer.">
  <defs>
    <linearGradient id="accent" x1="0" y1="0" x2="1" y2="1">
      <stop offset="0" stop-color="#22d3ee"/>
      <stop offset="0.55" stop-color="#a78bfa"/>
      <stop offset="1" stop-color="#f472b6"/>
    </linearGradient>
    <marker id="arrow" viewBox="0 0 10 10" refX="9" refY="5" markerWidth="7" markerHeight="7" orient="auto-start-reverse">
      <path d="M0,0 L10,5 L0,10 z" fill="#6b6b8a"/>
    </marker>
    <style>
      .bg   { fill: #0f0f18; stroke: #26263a; stroke-width: 1.5; }
      .node { fill: #1a1a29; stroke: #33334d; stroke-width: 1.5; }
      .agent{ fill: #171727; stroke: url(#accent); stroke-width: 2; }
      .iso  { fill: #171727; stroke: url(#accent); stroke-width: 2; stroke-dasharray: 6 4; }
      .lbl  { fill: #ecedf3; font-family: ui-sans-serif, system-ui, -apple-system, "Segoe UI", Roboto, sans-serif; font-size: 17px; font-weight: 600; }
      .sub  { fill: #a0a1b5; font-family: ui-monospace, "SF Mono", Menlo, monospace; font-size: 12px; }
      .tag  { fill: #22d3ee; font-family: ui-monospace, "SF Mono", Menlo, monospace; font-size: 12px; letter-spacing: 0.12em; }
      .tag2 { fill: #a78bfa; font-family: ui-monospace, "SF Mono", Menlo, monospace; font-size: 12px; letter-spacing: 0.12em; }
      .edge { fill: #8a8aa8; font-family: ui-monospace, "SF Mono", Menlo, monospace; font-size: 11.5px; }
      .flow { stroke: #6b6b8a; stroke-width: 2; fill: none; marker-end: url(#arrow); }
      .band { fill: #a0a1b5; font-family: ui-monospace, "SF Mono", Menlo, monospace; font-size: 13.5px; }
    </style>
  </defs>

  <rect class="bg" x="1" y="1" width="1058" height="558" rx="18"/>

  <!-- INGESTION lane -->
  <text class="tag" x="30" y="44">INGESTION  ·  auto-triggered on upload</text>

  <rect class="iso"  x="30"  y="66" width="150" height="70" rx="12"/>
  <text class="lbl"  x="105" y="97"  text-anchor="middle">Blob Storage</text>
  <text class="sub"  x="105" y="118" text-anchor="middle">tenant-isolated</text>

  <rect class="node" x="250" y="66" width="180" height="70" rx="12"/>
  <text class="lbl"  x="340" y="97"  text-anchor="middle">Document Intelligence</text>
  <text class="sub"  x="340" y="118" text-anchor="middle">parse</text>

  <rect class="node" x="500" y="66" width="200" height="70" rx="12"/>
  <text class="lbl"  x="600" y="97"  text-anchor="middle">Semantic chunker</text>
  <text class="sub"  x="600" y="118" text-anchor="middle">LangChain → embeddings</text>

  <path class="flow" d="M180 101 L246 101"/>
  <path class="flow" d="M430 101 L496 101"/>

  <!-- shared index -->
  <rect class="iso"  x="770" y="66" width="250" height="130" rx="14"/>
  <text class="lbl"  x="895" y="118" text-anchor="middle">Azure AI Search</text>
  <text class="sub"  x="895" y="141" text-anchor="middle">per-tenant index</text>
  <text class="sub"  x="895" y="161" text-anchor="middle">hybrid + tenant filter</text>
  <path class="flow" d="M700 101 C 740 101, 745 118, 766 121"/>
  <text class="edge" x="740" y="88" text-anchor="middle">index</text>

  <!-- QUERY lane -->
  <text class="tag2" x="30" y="300">QUERY</text>

  <rect class="node" x="30"  y="322" width="120" height="72" rx="12"/>
  <text class="lbl"  x="90"  y="354" text-anchor="middle">User</text>
  <text class="sub"  x="90"  y="375" text-anchor="middle">a tenant</text>

  <rect class="node" x="210" y="322" width="150" height="72" rx="12"/>
  <text class="lbl"  x="285" y="354" text-anchor="middle">Azure AD B2C</text>
  <text class="sub"  x="285" y="375" text-anchor="middle">auth + claims</text>

  <rect class="agent" x="420" y="322" width="190" height="72" rx="12"/>
  <text class="lbl"  x="515" y="354" text-anchor="middle">RAG service</text>
  <text class="sub"  x="515" y="375" text-anchor="middle">FastAPI</text>

  <rect class="node" x="770" y="322" width="250" height="72" rx="12"/>
  <text class="lbl"  x="895" y="354" text-anchor="middle">Azure OpenAI</text>
  <text class="sub"  x="895" y="375" text-anchor="middle">grounded generation</text>

  <path class="flow" d="M150 358 L206 358"/>
  <path class="flow" d="M360 358 L416 358"/>
  <path class="flow" d="M610 358 C 700 358, 705 300, 766 260"/>
  <text class="edge" x="690" y="330" text-anchor="middle">hybrid query</text>
  <path class="flow" d="M895 200 L895 318"/>
  <text class="edge" x="960" y="260" text-anchor="middle">context</text>
  <path class="flow" d="M770 372 C 690 400, 590 400, 515 400 L515 398"/>
  <text class="edge" x="640" y="420" text-anchor="middle">answer + citations</text>

  <!-- foundation band -->
  <text class="band" x="30"  y="516">Azure</text>
  <text class="band" x="118" y="516">·  tenant isolation at every layer</text>
  <text class="band" x="470" y="516">·  2,000+ concurrent sessions  ·  sub-second latency</text>
</svg>
