<svg xmlns="http://www.w3.org/2000/svg" viewBox="0 0 1080 640" role="img"
     aria-label="Multi-tenant healthcare RAG platform on Azure. Ingestion, auto-triggered via Service Bus and Azure Functions when documents land in tenant-isolated Blob Storage: Azure AI Document Intelligence parses them, a LangChain semantic chunker splits them, and text-embedding-3-large embeddings are written to a per-tenant Azure AI Search index. Query: Azure AD B2C authenticates, the FastAPI RAG service on App Service rewrites the query and runs hybrid search with a semantic reranker and tenant filter over Azure AI Search, then GPT-4o generates a grounded answer with citations. Cross-cutting: Azure AI Content Safety, Azure Cache for Redis, per-tenant Cosmos DB conversation history, RAGAS evaluation, LangSmith cost tracking, and a user-feedback loop. Load-tested for 2,000-plus concurrent sessions at sub-second latency.">
  <defs>
    <linearGradient id="accent" x1="0" y1="0" x2="1" y2="1">
      <stop offset="0" stop-color="#22d3ee"/>
      <stop offset="0.55" stop-color="#a78bfa"/>
      <stop offset="1" stop-color="#f472b6"/>
    </linearGradient>
    <marker id="arrow" viewBox="0 0 10 10" refX="9" refY="5" markerWidth="7" markerHeight="7" orient="auto-start-reverse">
      <path d="M0,0 L10,5 L0,10 z" fill="#6b6b8a"/>
    </marker>
    <style>
      .bg   { fill: #0f0f18; stroke: #26263a; stroke-width: 1.5; }
      .node { fill: #1a1a29; stroke: #33334d; stroke-width: 1.5; }
      .agent{ fill: #171727; stroke: url(#accent); stroke-width: 2; }
      .iso  { fill: #171727; stroke: url(#accent); stroke-width: 2; stroke-dasharray: 6 4; }
      .pill { fill: #14141f; stroke: #33334d; stroke-width: 1.25; }
      .lbl  { fill: #ecedf3; font-family: ui-sans-serif, system-ui, -apple-system, "Segoe UI", Roboto, sans-serif; font-size: 16px; font-weight: 600; }
      .sub  { fill: #a0a1b5; font-family: ui-monospace, "SF Mono", Menlo, monospace; font-size: 11.5px; }
      .plbl { fill: #c7c8da; font-family: ui-monospace, "SF Mono", Menlo, monospace; font-size: 12.5px; }
      .tag  { fill: #22d3ee; font-family: ui-monospace, "SF Mono", Menlo, monospace; font-size: 11.5px; letter-spacing: 0.11em; }
      .tag2 { fill: #a78bfa; font-family: ui-monospace, "SF Mono", Menlo, monospace; font-size: 11.5px; letter-spacing: 0.11em; }
      .tag3 { fill: #f472b6; font-family: ui-monospace, "SF Mono", Menlo, monospace; font-size: 11.5px; letter-spacing: 0.11em; }
      .edge { fill: #8a8aa8; font-family: ui-monospace, "SF Mono", Menlo, monospace; font-size: 11px; }
      .flow { stroke: #6b6b8a; stroke-width: 2; fill: none; marker-end: url(#arrow); }
      .band { fill: #a0a1b5; font-family: ui-monospace, "SF Mono", Menlo, monospace; font-size: 13px; }
    </style>
  </defs>

  <rect class="bg" x="1" y="1" width="1078" height="638" rx="18"/>

  <!-- INGESTION -->
  <text class="tag" x="30" y="42">INGESTION  ·  Service Bus → Azure Functions on upload</text>

  <rect class="iso"  x="30"  y="62" width="150" height="66" rx="12"/>
  <text class="lbl"  x="105" y="90"  text-anchor="middle">Blob Storage</text>
  <text class="sub"  x="105" y="110" text-anchor="middle">tenant-isolated</text>

  <rect class="node" x="248" y="62" width="185" height="66" rx="12"/>
  <text class="lbl"  x="340" y="90"  text-anchor="middle">Doc Intelligence</text>
  <text class="sub"  x="340" y="110" text-anchor="middle">parse</text>

  <rect class="node" x="500" y="62" width="215" height="66" rx="12"/>
  <text class="lbl"  x="607" y="90"  text-anchor="middle">Semantic chunker</text>
  <text class="sub"  x="607" y="110" text-anchor="middle">LangChain · embed-3-large</text>

  <path class="flow" d="M180 95 L244 95"/>
  <path class="flow" d="M433 95 L496 95"/>

  <!-- shared index -->
  <rect class="iso"  x="790" y="62" width="260" height="150" rx="14"/>
  <text class="lbl"  x="920" y="108" text-anchor="middle">Azure AI Search</text>
  <text class="sub"  x="920" y="132" text-anchor="middle">per-tenant index</text>
  <text class="sub"  x="920" y="152" text-anchor="middle">hybrid + semantic rerank</text>
  <text class="sub"  x="920" y="170" text-anchor="middle">+ tenant filter</text>
  <path class="flow" d="M715 95 C 760 92, 765 120, 786 128"/>
  <text class="edge" x="758" y="82" text-anchor="middle">index</text>

  <!-- QUERY -->
  <text class="tag2" x="30" y="272">QUERY</text>

  <rect class="node" x="30"  y="292" width="120" height="70" rx="12"/>
  <text class="lbl"  x="90"  y="322" text-anchor="middle">User</text>
  <text class="sub"  x="90"  y="342" text-anchor="middle">a tenant</text>

  <rect class="node" x="200" y="292" width="150" height="70" rx="12"/>
  <text class="lbl"  x="275" y="322" text-anchor="middle">Azure AD B2C</text>
  <text class="sub"  x="275" y="342" text-anchor="middle">auth + claims</text>

  <rect class="agent" x="400" y="292" width="215" height="70" rx="12"/>
  <text class="lbl"  x="507" y="322" text-anchor="middle">RAG service</text>
  <text class="sub"  x="507" y="342" text-anchor="middle">FastAPI · App Service</text>

  <rect class="node" x="790" y="292" width="260" height="70" rx="12"/>
  <text class="lbl"  x="920" y="322" text-anchor="middle">Azure OpenAI</text>
  <text class="sub"  x="920" y="342" text-anchor="middle">GPT-4o · grounded</text>

  <path class="flow" d="M150 327 L196 327"/>
  <path class="flow" d="M350 327 L396 327"/>
  <path class="flow" d="M615 320 C 710 315, 720 240, 786 210"/>
  <text class="edge" x="672" y="272" text-anchor="middle">rewrite + hybrid</text>
  <path class="flow" d="M920 216 L920 288"/>
  <text class="edge" x="978" y="255" text-anchor="middle">context</text>
  <path class="flow" d="M790 348 C 700 372, 600 372, 510 372 L510 366"/>
  <text class="edge" x="640" y="392" text-anchor="middle">answer + citations</text>

  <!-- CROSS-CUTTING -->
  <text class="tag3" x="30" y="452">CROSS-CUTTING</text>

  <rect class="pill" x="30"  y="468" width="205" height="36" rx="18"/>
  <text class="plbl" x="132" y="491" text-anchor="middle">Azure AI Content Safety</text>
  <rect class="pill" x="250" y="468" width="180" height="36" rx="18"/>
  <text class="plbl" x="340" y="491" text-anchor="middle">Azure Cache for Redis</text>
  <rect class="pill" x="445" y="468" width="260" height="36" rx="18"/>
  <text class="plbl" x="575" y="491" text-anchor="middle">Cosmos DB · per-tenant history</text>

  <rect class="pill" x="30"  y="516" width="175" height="36" rx="18"/>
  <text class="plbl" x="117" y="539" text-anchor="middle">RAGAS evaluation</text>
  <rect class="pill" x="220" y="516" width="245" height="36" rx="18"/>
  <text class="plbl" x="342" y="539" text-anchor="middle">LangSmith · token &amp; cost</text>
  <rect class="pill" x="480" y="516" width="225" height="36" rx="18"/>
  <text class="plbl" x="592" y="539" text-anchor="middle">per-tenant rate limiting</text>

  <rect class="pill" x="720" y="468" width="330" height="84" rx="14"/>
  <text class="plbl" x="885" y="500" text-anchor="middle">user-feedback loop</text>
  <text class="sub"  x="885" y="522" text-anchor="middle">thumbs → RAGAS → retrieval tuning</text>

  <!-- foundation band -->
  <text class="band" x="30"  y="602">Azure  ·  tenant isolation at every layer</text>
  <text class="band" x="480" y="602">·  2,000+ concurrent sessions  ·  sub-second latency</text>
</svg>
